<?xml version="1.0" encoding="UTF-8" standalone="no"?>
<!-- Created with Inkscape (http://www.inkscape.org/) -->

<svg
   width="512"
   height="512"
   viewBox="0 0 135.46667 135.46667"
   version="1.1"
   id="svg1"
   xml:space="preserve"
   inkscape:version="1.4.2 (f4327f4, 2025-05-13)"
   sodipodi:docname="logo.svg"
   inkscape:export-filename="kurza-logo.png"
   inkscape:export-xdpi="48"
   inkscape:export-ydpi="48"
   xmlns:inkscape="http://www.inkscape.org/namespaces/inkscape"
   xmlns:sodipodi="http://sodipodi.sourceforge.net/DTD/sodipodi-0.dtd"
   xmlns="http://www.w3.org/2000/svg"
   xmlns:svg="http://www.w3.org/2000/svg"><sodipodi:namedview
     id="namedview1"
     pagecolor="#ffffff"
     bordercolor="#000000"
     borderopacity="0.25"
     inkscape:showpageshadow="2"
     inkscape:pageopacity="0.0"
     inkscape:pagecheckerboard="0"
     inkscape:deskcolor="#d1d1d1"
     inkscape:document-units="mm"
     inkscape:zoom="0.7616793"
     inkscape:cx="159.51595"
     inkscape:cy="330.19146"
     inkscape:window-width="1920"
     inkscape:window-height="1057"
     inkscape:window-x="-8"
     inkscape:window-y="-8"
     inkscape:window-maximized="1"
     inkscape:current-layer="layer1"
     showgrid="false" /><defs
     id="defs1"><filter
       inkscape:label="Neon"
       inkscape:menu="Bevels"
       inkscape:menu-tooltip="Neon light effect"
       x="-0.43475419"
       y="-0.3447583"
       width="1.8695084"
       height="1.6895165"
       style="color-interpolation-filters:sRGB"
       id="filter12"><feGaussianBlur
         stdDeviation="1"
         result="result1"
         id="feGaussianBlur7" /><feComposite
         in="result1"
         in2="result1"
         result="result4"
         operator="in"
         id="feComposite7" /><feGaussianBlur
         stdDeviation="7"
         result="result6"
         in="result4"
         id="feGaussianBlur8" /><feComposite
         operator="over"
         in="result6"
         in2="result4"
         result="result8"
         id="feComposite8" /><feComposite
         operator="in"
         result="fbSourceGraphic"
         in="result6"
         in2="result8"
         id="feComposite9" /><feSpecularLighting
         specularExponent="45"
         specularConstant="2"
         surfaceScale="2.5"
         lighting-color="#ffffff"
         result="result1"
         in="fbSourceGraphic"
         id="feSpecularLighting9"><fePointLight
           z="20000"
           y="-10000"
           x="-5000"
           id="fePointLight9" /></feSpecularLighting><feComposite
         operator="in"
         result="result2"
         in="result1"
         in2="fbSourceGraphic"
         id="feComposite10" /><feComposite
         k3="1.1"
         k2="1.1"
         operator="arithmetic"
         result="result14"
         in="fbSourceGraphic"
         in2="result2"
         id="feComposite11"
         k1="0"
         k4="0" /><feGaussianBlur
         stdDeviation="0.7"
         result="result7"
         in="result14"
         id="feGaussianBlur11" /><feComposite
         operator="over"
         in="result7"
         result="result9"
         id="feComposite12" /><feBlend
         mode="screen"
         in2="result9"
         id="feBlend12" /></filter></defs><g
     inkscape:label="Layer 1"
     inkscape:groupmode="layer"
     id="layer1"
     transform="translate(-72.515701,-114.06327)"><g
       id="g3"
       transform="matrix(2.0420042,0,0,2.0420042,-79.299329,-122.5906)"><path
         id="path1"
         style="fill:#0044aa;fill-opacity:1"
         d="m 106.83207,118.58014 c -1.02136,0.0191 -2.03377,0.0689 -2.59777,0.14418 -3.27676,0.43724 -6.405435,1.51407 -9.054745,3.11712 -2.20266,1.33279 -4.66935,3.49145 -6.10505,5.34386 -3.41359,4.40437 -5.31068,9.77137 -5.72679,16.17989 -0.2331,3.59006 0.29111,6.48886 1.90066,10.52339 0.3212,0.80512 0.83443,2.27242 1.13275,3.24011 0.73318,2.37828 1.04613,3.20051 1.74977,4.60747 1.01855,2.03668 2.03958,3.45644 3.6623,5.08807 2.88906,2.90489 6.42841,4.8693 10.558535,5.86114 1.05887,0.25428 2.38645,0.48827 3.28507,0.58032 0.9538,0.0978 4.28878,0.0519 5.33817,-0.0708 5.458,-0.63805 11.02788,-2.87792 15.39803,-6.19136 1.27811,-0.96906 2.71507,-2.31037 3.72484,-3.4804 0.40288,-0.46684 0.63631,-0.76318 0.71675,-1.0604 0.0402,-0.14862 0.0271,-0.31114 -0.045,-0.43925 -0.072,-0.12812 -0.18306,-0.21792 -0.31264,-0.30283 -0.17427,-0.11431 -0.37491,-0.17034 -0.57775,-0.11937 -0.10895,0.0274 -0.14255,0.0686 -0.20928,0.12144 -0.0667,0.0528 -0.14258,0.119 -0.22635,0.19895 -0.16754,0.15991 -0.36591,0.3691 -0.56069,0.59377 -1.44987,1.67231 -3.67007,3.5206 -5.7676,4.79712 -4.64672,2.82788 -10.08509,4.42952 -15.04301,4.43745 -1.81557,0.003 -2.75178,-0.0841 -4.40439,-0.41237 -5.769315,-1.14596 -10.719565,-4.49207 -13.412095,-9.05061 -0.99385,-1.68263 -1.52419,-2.95863 -2.3766,-5.70147 -0.3061,-0.98494 -0.81924,-2.44918 -1.14463,-3.27318 -0.98267,-2.48841 -1.38678,-3.88981 -1.64848,-5.70921 -0.63205,-4.39412 0.37707,-10.48418 2.48409,-14.94121 3.17709,-6.72062 9.07359,-11.15301 16.310625,-12.25972 1.45513,-0.22256 4.14895,-0.30535 5.52731,-0.17208 2.87584,0.27806 5.25866,0.94134 7.71684,2.14664 4.50188,2.20736 8.09795,5.82139 10.61951,10.68359 0.13802,0.26613 0.24566,0.45126 0.34933,0.58807 0.10368,0.13682 0.21689,0.23595 0.3576,0.2713 0.40894,0.10264 0.84411,-0.0873 0.98031,-0.47439 0.0484,-0.13774 0.0506,-0.31572 -0.0274,-0.53123 -0.078,-0.21551 -0.22338,-0.50784 -0.48214,-1.01389 -0.70496,-1.37863 -1.79498,-3.05999 -2.7833,-4.29483 -0.93762,-1.17151 -2.69651,-2.93107 -3.82612,-3.82819 -3.75118,-2.97917 -8.1343,-4.74002 -12.82609,-5.15059 -0.60322,-0.0528 -1.63326,-0.0656 -2.65462,-0.0465 z m 1.08211,2.90784 c -0.60998,-0.026 -1.22402,-0.0234 -1.83813,0.004 -1.63755,0.0734 -3.28461,0.33483 -4.91753,0.79478 -4.461595,1.25675 -8.402775,4.12369 -10.937835,7.95714 -1.84776,2.79412 -3.18818,6.70794 -3.78116,11.00966 -0.18987,1.37733 -0.26561,4.65704 -0.12713,5.78311 0.60985,4.95922 3.24605,9.17867 7.75405,12.44369 3.25881,2.36025 7.401375,4.036 11.349695,4.58783 1.19787,0.16745 3.84761,0.1847 5.05292,0.0331 5.81712,-0.73179 11.52383,-3.66287 14.84147,-7.64242 0.67571,-0.81052 1.57628,-2.2188 2.04329,-3.19154 1.52208,-3.17035 1.83743,-6.49455 0.98598,-10.29084 -0.65757,-2.93192 -2.19124,-5.92593 -4.10931,-8.01605 -0.44626,-0.4863 -1.68309,-1.85975 -2.74608,-3.04684 -1.88153,-2.10121 -2.56566,-2.77669 -3.8008,-3.7636 -4.22228,-3.37369 -10.25416,-4.66685 -15.29674,-3.26957 -3.330775,0.92295 -6.568175,2.88286 -8.527135,5.1723 -2.66148,3.11047 -4.2739,7.587 -4.67981,12.92531 -0.20583,2.7069 0.18132,5.60911 1.12086,8.38863 0.28486,0.84274 0.49226,1.36396 0.73277,1.68362 0.12025,0.15983 0.2591,0.27438 0.4253,0.32039 0.1662,0.046 0.33718,0.0145 0.49454,-0.0506 0.34979,-0.14489 0.51164,-0.53941 0.42375,-0.92966 -0.021,-0.0931 -0.0683,-0.22426 -0.14056,-0.42581 -0.0723,-0.20156 -0.1664,-0.45226 -0.26355,-0.70487 -0.97509,-2.53532 -1.43682,-5.8558 -1.18598,-8.51989 0.47065,-4.99849 1.97523,-8.98671 4.41834,-11.7812 1.90067,-2.17405 5.012375,-3.93271 8.384495,-4.72425 1.48722,-0.3491 3.06979,-0.22268 4.52944,0.3669 0.89288,0.36065 1.57103,0.7394 2.75177,1.72857 1.18075,0.98918 2.85322,2.58433 5.68389,5.34748 4.47698,4.37017 5.47897,5.51448 6.40013,7.28741 1.40321,2.70068 1.70848,5.85535 0.83199,8.50956 -0.30902,0.93573 -0.9559,2.22754 -1.52135,3.03702 -2.0794,2.97682 -5.90284,5.6356 -9.24595,6.43785 -1.88296,0.45186 -3.77355,0.20937 -5.48442,-0.70538 -1.62493,-0.8688 -2.49275,-1.24961 -3.514,-1.54306 -1.51557,-0.4355 -2.46219,-0.82084 -3.16776,-1.2733 -2.199035,-1.4102 -3.414985,-3.87631 -3.701065,-7.60936 -0.22553,-2.94284 -0.18578,-6.21202 0.12299,-10.11928 0.094,-1.18956 0.14058,-2.07773 0.14056,-2.7342 -3e-5,-0.65647 -0.0384,-1.07558 -0.15607,-1.36116 -0.22712,-0.55137 -0.66317,-0.89329 -1.1467,-0.95498 -0.48353,-0.0617 -0.99451,0.15775 -1.36891,0.63046 -0.67932,0.85772 -1.34577,2.42157 -1.77353,4.1 -0.50089,1.9654 -0.6001,2.98837 -0.5979,6.18929 0.002,3.47516 0.1866,5.45403 0.72502,7.72666 0.61302,2.58752 1.62911,4.50025 3.2675,6.13864 1.70983,1.70984 4.086715,2.94859 6.806305,3.55844 0.62864,0.14097 1.01186,0.21296 1.32033,0.13075 0.15424,-0.0411 0.29226,-0.14631 0.36122,-0.28319 0.069,-0.13689 0.0842,-0.28631 0.0842,-0.45475 0,-0.11008 -0.0146,-0.22817 -0.076,-0.33797 -0.0614,-0.10979 -0.16222,-0.19572 -0.28732,-0.26406 -0.25021,-0.13669 -0.62315,-0.23943 -1.27538,-0.40773 -1.94163,-0.50103 -3.15787,-1.03889 -4.549065,-2.0159 -0.74819,-0.52544 -1.83207,-1.60218 -2.34767,-2.32802 -0.80739,-1.13662 -1.5395,-2.91355 -1.88463,-4.60179 -0.57484,-2.8118 -0.79855,-7.7135 -0.47078,-10.13633 0.18742,-1.38534 0.50042,-2.76616 0.85938,-3.8008 0.21193,-0.61085 0.48768,-1.22164 0.72502,-1.64848 0.0741,-0.13318 0.12935,-0.20472 0.19121,-0.29507 0.004,0.19298 0.002,0.4376 -0.008,0.74 -0.0209,0.65907 -0.072,1.52331 -0.14676,2.37712 -0.18565,2.11924 -0.26274,8.06038 -0.1266,9.91206 0.12896,1.75418 0.34786,3.05803 0.69298,4.08812 0.5764,1.72046 1.24927,2.88503 2.28358,3.92947 1.17917,1.19071 2.520345,1.90935 4.671545,2.52336 1.35124,0.38568 1.95829,0.64398 3.50005,1.49242 2.60104,1.43138 5.47607,1.53874 8.51989,0.32608 2.48112,-0.98848 4.47469,-2.3263 6.51536,-4.36718 1.76049,-1.76069 2.82607,-3.41231 3.50573,-5.44514 0.41058,-1.22803 0.51974,-1.74987 0.61134,-2.91817 0.22465,-2.86619 -0.60166,-5.82787 -2.35128,-8.45323 -0.84692,-1.27085 -2.36547,-2.88163 -6.30504,-6.71484 -3.45215,-3.35894 -4.57489,-4.40451 -5.74384,-5.34179 -0.0233,-0.0187 -0.0362,-0.0302 -0.0589,-0.0486 0.42895,0.13141 0.93466,0.30025 1.25987,0.42943 2.07784,0.82541 3.9821,2.09757 5.70508,3.81062 0.5072,0.50428 1.58457,1.66787 2.37918,2.57246 0.79857,0.90909 1.818,2.0508 2.26963,2.54299 3.49473,3.80862 5.02611,9.66698 3.75946,14.31644 -0.41076,1.50776 -0.96397,2.69454 -1.89859,4.06797 -2.72575,4.00551 -8.24031,7.16798 -14.15004,8.0822 -1.50497,0.23281 -4.21131,0.19393 -5.77381,-0.0837 -4.47091,-0.79446 -9.090625,-3.09579 -12.157915,-6.05079 -2.50251,-2.41091 -4.05482,-5.18345 -4.7072,-8.40621 -0.17589,-0.86885 -0.19271,-1.15951 -0.19121,-3.17603 10e-4,-1.6936 0.0374,-2.4762 0.14832,-3.2303 0.88043,-5.98626 2.52859,-9.75772 5.64668,-12.96871 1.54576,-1.59182 3.02419,-2.65013 5.09168,-3.64474 4.135555,-1.98953 9.076905,-2.3877 13.582115,-1.08986 1.87223,0.53935 3.55885,1.31293 5.17953,2.37505 2.03792,1.33555 3.41994,2.61409 5.1542,4.7656 0.48749,0.60477 1.15554,1.4177 1.48622,1.81074 2.71576,3.22778 3.72284,4.77995 4.69739,7.23212 0.2075,0.52216 0.49901,1.41858 0.63872,1.96112 1.49603,5.8095 0.36639,11.03835 -3.33417,15.45487 -3.22164,3.84497 -9.06359,6.97893 -14.87092,7.96127 -1.46777,0.24829 -4.10486,0.31002 -5.64617,0.13074 -3.29307,-0.38303 -6.636095,-1.57508 -10.068635,-3.59564 -1.12481,-0.66212 -1.59605,-0.85938 -2.12907,-0.85938 -0.39575,0 -0.73198,0.1231 -0.94516,0.37465 -0.21318,0.25155 -0.28406,0.60679 -0.22479,1.00201 0.10413,0.69441 0.77253,1.57411 1.69188,2.50786 0.91935,0.93374 2.10024,1.88791 3.26337,2.57245 2.52349,1.48515 5.551595,2.40643 8.742105,2.66599 6.82798,0.55549 14.20393,-1.77444 19.79104,-6.24613 0.8514,-0.68142 2.58916,-2.38295 3.28352,-3.21479 0.57574,-0.68976 1.22403,-1.62056 1.73426,-2.44533 0.25511,-0.41239 0.47606,-0.798 0.63458,-1.11518 0.0793,-0.15859 0.14369,-0.29927 0.18966,-0.4222 0.046,-0.12292 0.076,-0.22133 0.076,-0.33383 0,-0.213 -0.0726,-0.41127 -0.21084,-0.55087 -0.13827,-0.13959 -0.33499,-0.2129 -0.54674,-0.2129 -0.18449,0 -0.391,0.0573 -0.5488,0.22892 -0.1578,0.17164 -0.30695,0.43075 -0.56637,0.89245 -3.46277,6.16289 -10.5322,10.59593 -18.72289,11.71298 -1.31991,0.18002 -4.40508,0.20729 -5.66426,0.0507 -4.08615,-0.5083 -7.401285,-1.94653 -9.912055,-4.28708 -0.28382,-0.26459 -0.68486,-0.70328 -0.99993,-1.07797 -0.0131,-0.0156 -0.0182,-0.026 -0.031,-0.0413 0.86038,0.5089 2.48795,1.39186 3.27525,1.75183 5.039145,2.30398 9.742165,2.90132 14.832165,1.88102 4.15044,-0.83196 8.38303,-2.75937 11.65201,-5.31027 2.57245,-2.00738 4.86033,-4.84294 5.97483,-7.41815 2.46437,-5.69425 1.90324,-12.24999 -1.52136,-17.92604 -0.71033,-1.17732 -1.44372,-2.15918 -2.76779,-3.70675 -0.59224,-0.69222 -1.46396,-1.75891 -1.9296,-2.36161 -1.04269,-1.34964 -2.92751,-3.25369 -4.12688,-4.16564 -3.5562,-2.704 -7.69119,-4.19153 -11.96102,-4.37337 z m -23.664195,34.82423 c -0.16971,0 -0.33241,0.0356 -0.4625,0.13901 -0.13008,0.1034 -0.20397,0.26218 -0.23254,0.43925 -0.0571,0.35412 0.0223,0.82546 0.19533,1.53117 0.76629,3.12456 2.58003,6.58365 4.80074,9.1581 2.61335,3.02962 6.10337,5.47015 10.04694,7.02747 1.885575,0.74462 3.619635,1.20078 5.929345,1.5627 1.29246,0.2025 5.33518,0.23131 6.6642,0.0486 4.53331,-0.62333 8.08526,-1.79868 12.50983,-4.13669 0.0429,-0.0227 0.0693,-0.0345 0.1111,-0.0563 -0.38704,0.37309 -0.84837,0.79589 -1.15393,1.0387 -1.55347,1.23436 -3.9555,2.58214 -5.92574,3.32641 -3.66363,1.38394 -7.73383,1.8672 -11.64063,1.38286 -5.355265,-0.66393 -10.210295,-2.94825 -13.949535,-6.55877 -0.32904,-0.31772 -0.54799,-0.51795 -0.72451,-0.64854 -0.17651,-0.1306 -0.33187,-0.19689 -0.48627,-0.19689 -0.43214,0 -0.76378,0.37329 -0.76378,0.81597 0,0.15139 0.0574,0.31992 0.1912,0.49248 0.13376,0.17255 0.34292,0.38119 0.69557,0.72037 3.11349,2.99448 7.10205,5.20376 11.363125,6.29729 1.46053,0.37482 3.48728,0.7109 4.86947,0.80667 2.0311,0.14075 4.61001,-0.009 6.61872,-0.38499 4.79258,-0.89784 9.36177,-3.2152 12.29537,-6.2482 0.44667,-0.46181 0.73741,-0.8 0.92553,-1.11105 0.18812,-0.31104 0.26491,-0.60192 0.26768,-0.91002 0.001,-0.16449 -0.007,-0.30121 -0.0646,-0.43201 -0.0581,-0.1308 -0.15361,-0.22882 -0.27751,-0.33952 -0.12461,-0.11133 -0.24011,-0.19686 -0.3824,-0.24443 -0.14229,-0.0476 -0.29033,-0.0548 -0.49041,-0.0548 -0.21539,0 -0.40898,0.0243 -0.66611,0.12144 -0.25712,0.0971 -0.58699,0.26069 -1.14257,0.54673 -2.19443,1.12983 -3.20597,1.62595 -3.96254,1.93942 -4.26468,1.76703 -8.90864,2.63023 -12.7894,2.38487 -7.934785,-0.50166 -15.231825,-4.83775 -19.064475,-11.31456 -1.02207,-1.7272 -1.7827,-3.56762 -2.27118,-5.49785 -0.16733,-0.66121 -0.26923,-1.0354 -0.41031,-1.28726 -0.0705,-0.12593 -0.16136,-0.2287 -0.27543,-0.28732 -0.11407,-0.0586 -0.23239,-0.0703 -0.34779,-0.0703 z" /><path
         id="path1-5"
         style="fill:#00aad4;fill-opacity:1"
         d="m 105.14885,130.24574 c -1.48461,0.0297 -2.86011,0.94876 -3.4401,2.48099 -0.0455,0.12033 -0.0873,0.24356 -0.11524,0.4532 -0.0279,0.20965 -0.0454,0.51014 -0.0584,1.0387 -0.026,1.05712 -0.0315,3.02641 -0.0429,6.93549 -0.008,2.70858 -0.008,4.71059 0.004,6.07612 0.006,0.68276 0.0131,1.20692 0.0238,1.58026 0.0107,0.37335 0.0177,0.57184 0.045,0.70332 0.23622,1.13785 1.07564,2.20054 2.12287,2.69131 0.22538,0.10562 0.39798,0.17386 0.62115,0.20877 0.22318,0.0349 0.48596,0.0393 0.92966,0.0393 0.46496,0 0.72402,-7.2e-4 0.95136,-0.0408 0.22734,-0.0401 0.40263,-0.12054 0.66405,-0.25011 0.14068,-0.0697 0.26692,-0.1278 0.36328,-0.17209 0.01,0.0206 0.016,0.0331 0.0274,0.0568 0.067,0.13928 0.15934,0.32928 0.25787,0.53692 0.56253,1.18544 1.46999,1.99756 2.57193,2.27376 0.24104,0.0605 0.68389,0.0754 1.09399,0.062 0.85133,-0.0277 1.56917,-0.27804 3.45302,-1.19114 1.26956,-0.61535 1.86917,-1.14417 2.32234,-2.06654 0.27727,-0.56442 0.31051,-0.72418 0.30851,-1.572 -0.002,-0.71547 -0.0449,-1.04668 -0.20102,-1.46503 -0.0437,-0.11698 -0.079,-0.21787 -0.10749,-0.30282 0.0684,-0.0196 0.1409,-0.0408 0.22841,-0.0646 0.96516,-0.26207 1.90033,-1.08282 2.3673,-2.05621 0.25811,-0.53801 0.3402,-1.21241 0.28112,-1.87327 -0.0591,-0.66086 -0.25991,-1.30884 -0.60927,-1.79111 -0.0813,-0.11223 -0.24094,-0.28512 -0.55087,-0.60513 -0.30993,-0.32 -0.76258,-0.77545 -1.40043,-1.41025 -1.27569,-1.2696 -3.28885,-3.25196 -6.36499,-6.26783 -1.26829,-1.24345 -2.13302,-2.07655 -2.72696,-2.62465 -0.59394,-0.54809 -0.90591,-0.808 -1.13482,-0.92811 -0.51488,-0.27014 -1.05381,-0.41701 -1.58595,-0.44906 -0.0997,-0.006 -0.19919,-0.008 -0.29817,-0.006 z m 0.0894,1.63505 c 0.50627,-1e-5 0.63327,0.0257 0.93741,0.18758 0.11414,0.0608 0.18073,0.0953 0.3421,0.22635 0.16137,0.13107 0.41118,0.35683 0.84543,0.77152 0.86848,0.8294 2.48012,2.41868 5.67562,5.56659 2.68572,2.64571 4.00375,3.93764 4.63124,4.67568 0.31375,0.36902 0.44743,0.59325 0.50746,0.76947 0.06,0.17621 0.0569,0.3288 0.0569,0.59014 0,0.63732 -0.22418,1.15133 -0.67593,1.55856 -0.44215,0.39859 -0.76393,0.52674 -1.49397,0.58395 -0.35356,0.0277 -0.61354,0.0752 -0.81442,0.19326 -0.20087,0.11804 -0.31471,0.33967 -0.31471,0.56431 0,0.078 0.0156,0.12349 0.0351,0.19327 0.0196,0.0698 0.046,0.15033 0.0785,0.24236 0.0652,0.18407 0.15203,0.40851 0.2496,0.63097 0.27641,0.63024 0.40228,1.12917 0.39067,1.55443 -0.0116,0.42526 -0.15204,0.78656 -0.44493,1.17409 -0.31059,0.41094 -0.93681,0.78998 -2.59778,1.50585 -1.12092,0.48311 -1.72901,0.56995 -2.33215,0.3731 -0.37177,-0.12133 -0.6207,-0.27637 -0.87695,-0.58807 -0.25625,-0.31171 -0.51215,-0.78998 -0.83613,-1.53531 -0.10983,-0.25268 -0.22501,-0.49463 -0.32401,-0.68316 -0.0495,-0.0943 -0.0943,-0.17509 -0.13487,-0.2403 -0.0405,-0.0652 -0.0543,-0.10392 -0.13488,-0.16588 -0.16125,-0.12402 -0.38088,-0.17364 -0.58549,-0.11524 -0.20462,0.0584 -0.39867,0.19247 -0.63511,0.39429 -0.54978,0.4693 -1.00091,0.61923 -1.711,0.56844 -0.84023,-0.0601 -1.42115,-0.46737 -1.78491,-1.25573 v -0.002 l -0.1757,-0.38086 -0.0238,-7.69565 c -0.0127,-4.27816 -0.0214,-6.35011 0.0393,-7.42177 0.0303,-0.53583 0.0791,-0.81753 0.14262,-0.99219 0.0636,-0.17465 0.1435,-0.26271 0.28526,-0.447 0.11872,-0.15435 0.45374,-0.43863 0.67748,-0.56482 0.39629,-0.22354 0.45436,-0.23616 1.002,-0.23616 z" /><path
         id="path2"
         style="fill:#2ad4ff;fill-opacity:1;stroke-width:1.32292;stroke-linecap:round;stroke-linejoin:round"
         d="m 105.21086,133.21301 c -0.20811,0.001 -0.40085,0.0727 -0.54105,0.2129 -0.0463,0.0464 -0.12968,0.16721 -0.15813,0.33797 -0.0284,0.17075 -0.0438,0.43021 -0.0548,0.9219 -0.0219,0.98339 -0.0212,2.8829 -0.0212,6.66213 0,4.12668 -0.007,6.09349 0.0486,7.06623 0.0278,0.48638 0.0558,0.72403 0.16227,0.90641 0.0532,0.0912 0.14359,0.16108 0.22065,0.1912 0.0771,0.0301 0.13359,0.035 0.18139,0.047 0.1668,0.0418 0.33432,0.044 0.49816,-0.0176 a 0.2080249,0.2080249 0 0 0 0.002,0 c 0.0656,-0.0247 0.077,-0.0416 0.1111,-0.0667 0.0341,-0.0251 0.073,-0.0575 0.11937,-0.0956 0.0927,-0.0762 0.21158,-0.17857 0.3514,-0.30282 0.27966,-0.24849 0.63999,-0.5811 1.01596,-0.93948 0.6456,-0.61539 0.99061,-0.93811 1.15807,-1.06608 0.60647,1.41274 1.11413,2.57179 1.4764,3.36878 0.18669,0.41072 0.33835,0.73221 0.45113,0.95912 0.0564,0.11345 0.10188,0.20336 0.14056,0.2713 0.0193,0.034 0.0372,0.0621 0.0548,0.0879 0.0176,0.0258 0.0245,0.0468 0.078,0.0863 0.17098,0.12607 0.40537,0.16355 0.68006,0.10749 0.27469,-0.0561 0.61905,-0.18833 1.13482,-0.41238 0.79097,-0.34362 1.24073,-0.54466 1.51928,-0.70487 0.13928,-0.0801 0.23801,-0.1513 0.31471,-0.23461 0.0767,-0.0833 0.12328,-0.18226 0.14625,-0.26923 0.0414,-0.15673 0.0691,-0.33069 -0.0253,-0.61547 -0.0945,-0.28478 -0.29144,-0.73495 -0.6935,-1.6583 -0.39543,-0.90813 -0.8483,-1.9448 -1.00563,-2.30632 l -0.15657,-0.36173 1.76578,0.047 c 0.98782,0.0262 1.51339,0.0396 1.83193,0.0253 0.15927,-0.007 0.26867,-0.0193 0.36535,-0.0486 0.0967,-0.0293 0.17552,-0.082 0.23048,-0.12712 0.17628,-0.14467 0.27116,-0.36349 0.2775,-0.59738 0.003,-0.0888 -0.0202,-0.25219 -0.14263,-0.42788 -0.12244,-0.17569 -0.33851,-0.41734 -0.76171,-0.8537 -0.84639,-0.87272 -2.5182,-2.51218 -5.84409,-5.76967 -1.95706,-1.91683 -3.07223,-3.00081 -3.73413,-3.61322 -0.33096,-0.3062 -0.54854,-0.49538 -0.709,-0.61495 -0.16047,-0.11956 -0.2734,-0.18049 -0.39843,-0.19172 -0.0303,-0.003 -0.0602,-0.004 -0.0899,-0.004 z m 0.86507,2.67373 c 0.10814,0.102 0.21725,0.20533 0.3731,0.35554 0.41701,0.40191 0.98476,0.95771 1.60197,1.56838 1.23554,1.22243 3.18911,3.15406 4.34134,4.29276 0.5757,0.56896 1.10019,1.08964 1.47898,1.47071 0.11888,0.1196 0.1936,0.19626 0.28112,0.28525 -0.0235,-2.9e-4 -0.034,3.7e-4 -0.0589,0 -0.33254,-0.005 -0.79192,-0.0162 -1.29862,-0.0331 -0.83634,-0.0278 -1.30025,-0.0414 -1.58802,-0.0294 -0.14389,0.006 -0.24574,0.0165 -0.3359,0.0429 -0.0901,0.0264 -0.16925,0.0798 -0.21859,0.12919 -0.0856,0.0856 -0.17826,0.19372 -0.21291,0.34571 -0.0346,0.152 -0.0131,0.31409 0.0486,0.53124 0.12338,0.4343 0.42049,1.12352 0.99632,2.43912 0.30714,0.70173 0.58304,1.34216 0.77928,1.80868 0.0981,0.23326 0.17642,0.42433 0.22841,0.555 0.005,0.0131 0.007,0.017 0.0119,0.0289 -0.021,0.01 -0.034,0.0163 -0.0584,0.0274 -0.13207,0.0602 -0.31201,0.13872 -0.50436,0.22273 -0.19256,0.0841 -0.36925,0.16197 -0.49971,0.21704 -0.0172,0.007 -0.0258,0.0111 -0.0413,0.0176 -0.0146,-0.0314 -0.0242,-0.0509 -0.0429,-0.092 -0.0792,-0.17411 -0.19383,-0.43306 -0.33952,-0.76584 -0.29136,-0.66557 -0.70673,-1.62726 -1.21284,-2.81223 -0.14024,-0.32836 -0.2818,-0.64365 -0.39843,-0.88884 -0.0583,-0.12259 -0.11129,-0.22649 -0.15451,-0.3085 -0.0432,-0.082 -0.0619,-0.12753 -0.11731,-0.19121 -0.14112,-0.16218 -0.32726,-0.21911 -0.53123,-0.21911 -0.17476,0 -0.33504,0.0884 -0.56431,0.26769 -0.22926,0.17932 -0.54524,0.46516 -1.03921,0.92966 -0.33347,0.31356 -0.64277,0.60046 -0.87075,0.80667 -0.026,0.0235 -0.0387,0.0334 -0.0625,0.0548 -3.3e-4,-0.0162 3.4e-4,-0.0221 0,-0.0393 -0.006,-0.30163 -0.0116,-0.74058 -0.016,-1.28106 -0.009,-1.08096 -0.0155,-2.57216 -0.0155,-4.21318 0,-1.64087 0.008,-3.13351 0.0196,-4.21473 0.006,-0.54061 0.0122,-0.97755 0.0196,-1.27899 3.1e-4,-0.0129 10e-4,-0.0171 0.002,-0.0295 z" /><path
         id="path5"
         style="fill:#006cc8;fill-opacity:1;stroke:none;stroke-width:0.157242;stroke-linecap:round;stroke-linejoin:round;stroke-dasharray:none;stroke-opacity:1"
         d="m 105.19326,127.33998 c -1.15665,0.005 -2.03383,0.21411 -3.00395,0.71882 -1.34709,0.70083 -2.279877,1.65345 -2.943484,3.01325 -0.351937,0.72113 -0.542087,1.0114 -0.622697,2.23242 -0.0806,1.22102 -0.0703,3.40283 -0.0703,8.06256 0,4.69125 -0.0142,6.86138 0.0724,8.08426 0.0866,1.22288 0.2922,1.52142 0.679537,2.32596 0.368897,0.76623 0.559607,1.0326 1.197334,1.6738 1.16263,1.16893 2.32996,1.72264 4.15014,1.97662 1.00445,0.14016 1.35578,0.28363 2.0469,0.82992 1.15187,0.91051 2.21193,1.39234 3.46077,1.57045 0.73284,0.10452 1.82325,0.0309 2.60398,-0.17363 1.17252,-0.3071 3.30429,-1.27663 4.439,-2.01383 1.54062,-1.00093 2.58664,-2.55009 2.9223,-4.32997 0.24794,-1.31469 0.29856,-1.43945 0.92346,-2.14871 2.06727,-2.34639 2.31817,-5.59733 0.62735,-8.17934 -0.17881,-0.27306 -0.5715,-0.7099 -1.41645,-1.57613 -0.84495,-0.86624 -2.13746,-2.15229 -4.08967,-4.07624 -3.34484,-3.29644 -4.97371,-4.90229 -5.8477,-5.74022 -0.87399,-0.83793 -1.01673,-0.92506 -1.33016,-1.13481 -1.16187,-0.77755 -2.3419,-1.12133 -3.79873,-1.11518 z m 0.0491,1.5875 c 0.96769,0.002 1.93578,0.28437 2.79466,0.84801 0.16339,0.10723 0.73438,0.60937 1.7229,1.55081 0.98852,0.94144 2.41856,2.33591 4.39456,4.28087 1.52652,1.50254 2.95487,2.9158 4.02508,3.98064 0.5351,0.53242 0.98111,0.97653 1.30483,1.30276 0.32372,0.32624 0.53814,0.54982 0.5643,0.58033 0.68938,0.80404 1.14877,2.07389 1.14877,3.19722 0,1.24077 -0.46869,2.43254 -1.35547,3.43545 -0.67266,0.76076 -1.04722,1.49793 -1.17771,2.33577 -0.26105,1.67607 -0.89391,2.79801 -2.05672,3.6742 -0.61981,0.46705 -2.61977,1.45054 -3.73827,1.82211 -1.98676,0.66 -3.52058,0.39226 -5.09995,-0.8847 -0.7881,-0.6372 -1.47678,-0.97622 -2.2655,-1.10381 -1.52196,-0.24622 -1.86933,-0.33865 -2.54661,-0.67179 -1.28995,-0.6345 -2.23388,-1.80962 -2.65824,-3.32797 -0.0669,-0.23929 -0.10451,-0.47878 -0.12505,-1.62522 -0.0205,-1.14644 -0.0238,-3.17763 -0.0238,-6.95513 0,-7.45336 0.0186,-8.11638 0.14469,-8.58191 0.3453,-1.27513 1.10167,-2.33429 2.15439,-3.02152 0.85809,-0.56018 1.82535,-0.838 2.79311,-0.83612 z" /><path
         id="path3"
         style="fill:#aaeeff;fill-opacity:1;stroke-width:0.0142734;stroke-linecap:round;stroke-linejoin:round"
         d="m 105.68112,135.61234 c -0.15986,0.32946 -0.1077,0.70069 -0.12737,1.05553 -0.0219,3.19484 -0.0198,6.38997 -0.003,9.58483 0.0231,0.29719 -0.0489,0.62748 0.13808,0.88327 0.0402,0.19244 0.21263,0.21243 0.37766,0.24208 0.17505,0.0788 0.34636,-0.0662 0.47697,-0.17147 0.64948,-0.58853 1.26174,-1.22337 1.96156,-1.75302 0.0956,-0.0886 0.24564,-0.0506 0.27723,0.0796 0.46853,0.885 0.82296,1.82507 1.23143,2.73838 0.31,0.69884 0.59133,1.41172 0.92554,2.09905 0.10774,0.17296 0.30198,0.29072 0.5088,0.24686 0.29011,0.0167 0.53817,-0.17506 0.80477,-0.26622 0.2144,-0.10194 0.46758,-0.15532 0.59566,-0.37513 0.1479,-0.10527 0.15035,-0.27614 0.13404,-0.4406 -0.33807,-0.92056 -0.76188,-1.8083 -1.13986,-2.71328 -0.2997,-0.73061 -0.66141,-1.4417 -0.87447,-2.20394 -0.034,-0.11753 -0.0363,-0.31335 0.13901,-0.28814 0.98912,-0.0383 1.9794,0.0207 2.96881,0.0315 0.13038,-0.0827 0.34194,-0.0915 0.41881,-0.22296 0.0335,-0.17089 0.18465,-0.34986 0.0492,-0.50916 -0.11262,-0.28502 -0.3954,-0.44903 -0.58914,-0.67636 -2.48439,-2.47649 -4.97163,-4.95005 -7.47942,-7.40287 -0.15158,-0.0289 -0.3117,-0.16755 -0.45766,-0.12427 -0.11237,0.0621 -0.22475,0.12419 -0.33712,0.18628 z" /></g></g></svg>
